<svg width="52" height="52" viewBox="0 0 52 52" fill="none" xmlns="http://www.w3.org/2000/svg">
<path d="M4.33325 34.8837C6.41518 35.3083 8.32629 36.3357 9.82875 37.8382C11.3312 39.3406 12.3587 41.2517 12.7833 43.3337M4.33325 26.1087C8.7333 26.598 12.8358 28.5701 15.9663 31.7006C19.0968 34.8311 21.0689 38.9336 21.5583 43.3337M4.33325 17.3337V13.0003C4.33325 11.8511 4.7898 10.7489 5.60246 9.9362C6.41511 9.12354 7.51731 8.66699 8.66658 8.66699H43.3332C44.4825 8.66699 45.5847 9.12354 46.3974 9.9362C47.21 10.7489 47.6666 11.8511 47.6666 13.0003V39.0003C47.6666 40.1496 47.21 41.2518 46.3974 42.0645C45.5847 42.8771 44.4825 43.3337 43.3332 43.3337H30.3333" stroke="white" stroke-width="3" stroke-linecap="round" stroke-linejoin="round"/>
<path d="M4.33325 43.333H4.35438" stroke="white" stroke-width="2" stroke-linecap="round" stroke-linejoin="round"/>
</svg>
