<svg width="52" height="52" viewBox="0 0 52 52" fill="none" xmlns="http://www.w3.org/2000/svg">
<g id="cube-outline 1">
<g id="Group 19">
<path id="Vector" d="M45.5 34.6702V17.3274C45.4993 16.7598 45.35 16.2022 45.0668 15.7103C44.7837 15.2183 44.3766 14.8091 43.8862 14.5233L28.4487 5.53907C27.7049 5.10606 26.8596 4.87793 25.999 4.87793C25.1383 4.87793 24.2931 5.10606 23.5493 5.53907L8.11383 14.5233C7.62337 14.8091 7.21632 15.2183 6.93318 15.7103C6.65004 16.2022 6.50069 16.7598 6.5 17.3274V34.6702C6.50034 35.2382 6.64952 35.7962 6.93268 36.2886C7.21583 36.7809 7.62308 37.1905 8.11383 37.4764L23.5513 46.4606C24.2953 46.893 25.1405 47.1208 26.001 47.1208C26.8615 47.1208 27.7067 46.893 28.4507 46.4606L43.8882 37.4764C44.3786 37.1902 44.7854 36.7805 45.0682 36.2882C45.351 35.7959 45.4999 35.238 45.5 34.6702Z" stroke="#DDDDFF" stroke-width="3" stroke-linecap="round" stroke-linejoin="round"/>
<path id="Vector_2" d="M7.00781 15.6396L26 26.8115M26 26.8115L44.9922 15.6396M26 26.8115V47.124" stroke="#DDDDFF" stroke-width="3" stroke-linecap="round" stroke-linejoin="round"/>
</g>
</g>
</svg>
