<svg width="52" height="52" viewBox="0 0 52 52" fill="none" xmlns="http://www.w3.org/2000/svg">
<path d="M17.3333 6.5H10.8333C9.68406 6.5 8.58186 6.95655 7.7692 7.7692C6.95655 8.58186 6.5 9.68406 6.5 10.8333V17.3333M45.5 17.3333V10.8333C45.5 9.68406 45.0435 8.58186 44.2308 7.7692C43.4181 6.95655 42.3159 6.5 41.1667 6.5H34.6667M34.6667 45.5H41.1667C42.3159 45.5 43.4181 45.0435 44.2308 44.2308C45.0435 43.4181 45.5 42.3159 45.5 41.1667V34.6667M6.5 34.6667V41.1667C6.5 42.3159 6.95655 43.4181 7.7692 44.2308C8.58186 45.0435 9.68406 45.5 10.8333 45.5H17.3333" stroke="#DDDDFF" stroke-width="3" stroke-linecap="round" stroke-linejoin="round"/>
</svg>
