<svg width="52" height="52" viewBox="0 0 52 52" fill="none" xmlns="http://www.w3.org/2000/svg">
<path d="M45.5 24.9167C45.5075 27.7764 44.8393 30.5975 43.55 33.1501C42.0213 36.2088 39.6711 38.7816 36.7628 40.5802C33.8545 42.3787 30.5029 43.3321 27.0833 43.3334C24.2236 43.3408 21.4026 42.6727 18.85 41.3834L6.5 45.5001L10.6167 33.1501C9.32735 30.5975 8.65921 27.7764 8.66667 24.9167C8.66799 21.4972 9.62133 18.1456 11.4199 15.2373C13.2185 12.3289 15.7912 9.97879 18.85 8.45006C21.4026 7.16075 24.2236 6.49261 27.0833 6.50006H28.1667C32.6828 6.74921 36.9483 8.65538 40.1465 11.8536C43.3447 15.0518 45.2508 19.3173 45.5 23.8334V24.9167Z" stroke="#DDDDFF" stroke-width="3" stroke-linecap="round" stroke-linejoin="round"/>
</svg>
