<svg width="52" height="52" viewBox="0 0 52 52" fill="none" xmlns="http://www.w3.org/2000/svg">
<g id="settings" clip-path="url(#clip0_515_411)">
<path id="Vector" d="M26 32.5C29.5899 32.5 32.5 29.5899 32.5 26C32.5 22.4101 29.5899 19.5 26 19.5C22.4101 19.5 19.5 22.4101 19.5 26C19.5 29.5899 22.4101 32.5 26 32.5Z" stroke="#DDDDFF" stroke-width="3" stroke-linecap="round" stroke-linejoin="round"/>
<path id="Vector_2" d="M42.0333 32.5003C41.7449 33.1538 41.6588 33.8787 41.7863 34.5816C41.9137 35.2845 42.2488 35.933 42.7483 36.4437L42.8783 36.5737C43.2812 36.9761 43.6008 37.454 43.8189 37.9801C44.037 38.5061 44.1492 39.07 44.1492 39.6395C44.1492 40.209 44.037 40.7728 43.8189 41.2989C43.6008 41.825 43.2812 42.3029 42.8783 42.7053C42.4758 43.1082 41.9979 43.4278 41.4719 43.6459C40.9458 43.864 40.3819 43.9762 39.8125 43.9762C39.243 43.9762 38.6791 43.864 38.153 43.6459C37.627 43.4278 37.1491 43.1082 36.7466 42.7053L36.6166 42.5753C36.106 42.0758 35.4574 41.7408 34.7546 41.6133C34.0517 41.4859 33.3268 41.5719 32.6733 41.8603C32.0325 42.135 31.4859 42.591 31.101 43.1723C30.716 43.7536 30.5094 44.4348 30.5066 45.132V45.5003C30.5066 46.6496 30.0501 47.7518 29.2374 48.5645C28.4248 49.3771 27.3226 49.8337 26.1733 49.8337C25.024 49.8337 23.9218 49.3771 23.1092 48.5645C22.2965 47.7518 21.84 46.6496 21.84 45.5003V45.3053C21.8232 44.5882 21.591 43.8926 21.1737 43.3092C20.7564 42.7257 20.1732 42.2813 19.5 42.0337C18.8465 41.7452 18.1215 41.6592 17.4187 41.7866C16.7158 41.9141 16.0673 42.2492 15.5566 42.7487L15.4266 42.8787C15.0242 43.2816 14.5463 43.6012 14.0202 43.8192C13.4941 44.0373 12.9303 44.1496 12.3608 44.1496C11.7913 44.1496 11.2274 44.0373 10.7014 43.8192C10.1753 43.6012 9.69741 43.2816 9.29496 42.8787C8.89206 42.4762 8.57244 41.9983 8.35437 41.4722C8.13629 40.9462 8.02405 40.3823 8.02405 39.8128C8.02405 39.2434 8.13629 38.6795 8.35437 38.1534C8.57244 37.6274 8.89206 37.1494 9.29496 36.747L9.42496 36.617C9.92446 36.1064 10.2595 35.4578 10.387 34.7549C10.5144 34.0521 10.4284 33.3272 10.14 32.6737C9.86531 32.0328 9.40926 31.4863 8.82797 31.1013C8.24667 30.7164 7.5655 30.5098 6.86829 30.507H6.49996C5.35069 30.507 4.24849 30.0504 3.43583 29.2378C2.62317 28.4251 2.16663 27.3229 2.16663 26.1737C2.16663 25.0244 2.62317 23.9222 3.43583 23.1095C4.24849 22.2969 5.35069 21.8403 6.49996 21.8403H6.69496C7.41211 21.8235 8.10764 21.5914 8.69111 21.1741C9.27458 20.7568 9.71901 20.1736 9.96663 19.5003C10.255 18.8468 10.3411 18.1219 10.2136 17.419C10.0862 16.7162 9.75112 16.0676 9.25163 15.557L9.12163 15.427C8.71873 15.0245 8.39911 14.5466 8.18103 14.0206C7.96296 13.4945 7.85072 12.9306 7.85072 12.3612C7.85072 11.7917 7.96296 11.2278 8.18103 10.7018C8.39911 10.1757 8.71873 9.69777 9.12163 9.29532C9.52408 8.89243 10.002 8.5728 10.5281 8.35473C11.0541 8.13666 11.618 8.02442 12.1875 8.02442C12.7569 8.02442 13.3208 8.13666 13.8469 8.35473C14.3729 8.5728 14.8508 8.89243 15.2533 9.29532L15.3833 9.42532C15.8939 9.92482 16.5425 10.2599 17.2453 10.3873C17.9482 10.5148 18.6731 10.4287 19.3266 10.1403H19.5C20.1408 9.86567 20.6873 9.40963 21.0723 8.82833C21.4573 8.24704 21.6638 7.56586 21.6666 6.86866V6.50033C21.6666 5.35105 22.1232 4.24885 22.9358 3.4362C23.7485 2.62354 24.8507 2.16699 26 2.16699C27.1492 2.16699 28.2514 2.62354 29.0641 3.4362C29.8767 4.24885 30.3333 5.35105 30.3333 6.50033V6.69533C30.3361 7.39253 30.5427 8.07371 30.9276 8.655C31.3126 9.2363 31.8591 9.69234 32.5 9.96699C33.1535 10.2554 33.8784 10.3414 34.5812 10.214C35.2841 10.0866 35.9327 9.75149 36.4433 9.25199L36.5733 9.12199C36.9757 8.71909 37.4537 8.39947 37.9797 8.1814C38.5058 7.96333 39.0697 7.85108 39.6391 7.85108C40.2086 7.85108 40.7725 7.96333 41.2985 8.1814C41.8246 8.39947 42.3025 8.71909 42.705 9.12199C43.1079 9.52444 43.4275 10.0024 43.6455 10.5284C43.8636 11.0545 43.9759 11.6184 43.9759 12.1878C43.9759 12.7573 43.8636 13.3212 43.6455 13.8472C43.4275 14.3733 43.1079 14.8512 42.705 15.2537L42.575 15.3837C42.0755 15.8943 41.7404 16.5429 41.6129 17.2457C41.4855 17.9486 41.5715 18.6735 41.86 19.327V19.5003C42.1346 20.1412 42.5907 20.6877 43.1719 21.0727C43.7532 21.4576 44.4344 21.6642 45.1316 21.667H45.5C46.6492 21.667 47.7514 22.1235 48.5641 22.9362C49.3767 23.7489 49.8333 24.8511 49.8333 26.0003C49.8333 27.1496 49.3767 28.2518 48.5641 29.0645C47.7514 29.8771 46.6492 30.3337 45.5 30.3337H45.305C44.6078 30.3364 43.9266 30.543 43.3453 30.928C42.764 31.313 42.3079 31.8595 42.0333 32.5003Z" stroke="#DDDDFF" stroke-width="3" stroke-linecap="round" stroke-linejoin="round"/>
</g>
<defs>
<clipPath id="clip0_515_411">
<rect width="52" height="52" fill="white"/>
</clipPath>
</defs>
</svg>
