<svg width="48" height="63" viewBox="0 0 48 63" fill="none" xmlns="http://www.w3.org/2000/svg">
<path fill-rule="evenodd" clip-rule="evenodd" d="M48 0H15.6V15.8098H0V48.6456H32.4V32.8358H48V0ZM32.4 32.8358V15.8098H15.6V32.8358H32.4Z" fill="#DDDDFF"/>
<path d="M0.353135 62.835C0.265135 62.835 0.193135 62.807 0.137135 62.751C0.0811348 62.695 0.0531348 62.623 0.0531348 62.535V54.735C0.0531348 54.647 0.0811348 54.575 0.137135 54.519C0.193135 54.463 0.265135 54.435 0.353135 54.435H1.90113C1.98913 54.435 2.06113 54.463 2.11713 54.519C2.17313 54.575 2.20113 54.647 2.20113 54.735V57.627H2.93313L4.70914 54.663C4.74914 54.599 4.80514 54.547 4.87714 54.507C4.94914 54.459 5.04114 54.435 5.15314 54.435H6.88114C6.96114 54.435 7.02514 54.463 7.07314 54.519C7.12113 54.567 7.14513 54.623 7.14513 54.687C7.14513 54.735 7.12913 54.783 7.09713 54.831L4.86513 58.479L7.31313 62.427C7.33714 62.459 7.34914 62.503 7.34914 62.559C7.34914 62.639 7.32114 62.707 7.26513 62.763C7.21713 62.811 7.15314 62.835 7.07314 62.835H5.29714C5.16914 62.835 5.07314 62.807 5.00913 62.751C4.95313 62.695 4.90913 62.647 4.87714 62.607L3.01713 59.547H2.20113V62.535C2.20113 62.623 2.17313 62.695 2.11713 62.751C2.06113 62.807 1.98913 62.835 1.90113 62.835H0.353135ZM9.2232 62.835C9.1352 62.835 9.0632 62.807 9.0072 62.751C8.9512 62.695 8.9232 62.623 8.9232 62.535V61.263C8.9232 61.175 8.9512 61.103 9.0072 61.047C9.0632 60.991 9.1352 60.963 9.2232 60.963H9.6792C9.8952 60.963 10.0792 60.923 10.2312 60.843C10.3832 60.755 10.5192 60.627 10.6392 60.459C10.7672 60.291 10.8912 60.067 11.0112 59.787L13.2432 54.687C13.2752 54.599 13.3232 54.535 13.3872 54.495C13.4512 54.455 13.5232 54.435 13.6032 54.435H15.1752C15.2472 54.435 15.3072 54.463 15.3552 54.519C15.4032 54.567 15.4272 54.623 15.4272 54.687C15.4272 54.719 15.4232 54.755 15.4152 54.795C15.4072 54.835 15.3952 54.871 15.3792 54.903L12.9912 60.387C12.7912 60.843 12.5952 61.227 12.4032 61.539C12.2192 61.851 12.0152 62.103 11.7912 62.295C11.5672 62.487 11.2992 62.627 10.9872 62.715C10.6832 62.795 10.3072 62.835 9.8592 62.835H9.2232ZM10.9152 60.675L7.7592 54.807C7.7432 54.775 7.7352 54.739 7.7352 54.699C7.7352 54.635 7.7632 54.575 7.8192 54.519C7.8752 54.463 7.9432 54.435 8.0232 54.435H9.6792C9.7672 54.435 9.8352 54.459 9.8832 54.507C9.9392 54.547 9.9872 54.607 10.0272 54.687L12.0192 58.575L10.9152 60.675ZM16.5602 62.835C16.4722 62.835 16.4002 62.807 16.3442 62.751C16.2882 62.695 16.2602 62.623 16.2602 62.535V54.735C16.2602 54.647 16.2882 54.575 16.3442 54.519C16.4002 54.463 16.4722 54.435 16.5602 54.435H22.3082C22.3962 54.435 22.4682 54.463 22.5242 54.519C22.5882 54.575 22.6202 54.647 22.6202 54.735V55.935C22.6202 56.023 22.5882 56.099 22.5242 56.163C22.4682 56.219 22.3962 56.247 22.3082 56.247H18.4082V57.675H20.0882C21.0482 57.675 21.8042 57.903 22.3562 58.359C22.9082 58.815 23.1842 59.435 23.1842 60.219C23.1842 60.587 23.1162 60.931 22.9802 61.251C22.8442 61.563 22.6442 61.839 22.3802 62.079C22.1242 62.311 21.8042 62.495 21.4202 62.631C21.0362 62.767 20.5922 62.835 20.0882 62.835H16.5602ZM18.4082 61.275H19.8962C20.1282 61.275 20.3202 61.227 20.4722 61.131C20.6322 61.027 20.7522 60.895 20.8322 60.735C20.9122 60.567 20.9522 60.391 20.9522 60.207C20.9522 59.927 20.8602 59.687 20.6762 59.487C20.5002 59.287 20.2402 59.187 19.8962 59.187H18.4082V61.275ZM24.4469 62.835C24.3589 62.835 24.2869 62.807 24.2309 62.751C24.1749 62.687 24.1469 62.615 24.1469 62.535V54.735C24.1469 54.647 24.1749 54.575 24.2309 54.519C24.2949 54.463 24.3669 54.435 24.4469 54.435H25.9949C26.0829 54.435 26.1549 54.463 26.2109 54.519C26.2669 54.575 26.2949 54.647 26.2949 54.735V59.571L29.7149 54.663C29.7549 54.599 29.8069 54.547 29.8709 54.507C29.9349 54.459 30.0189 54.435 30.1229 54.435H31.5149C31.5949 54.435 31.6629 54.463 31.7189 54.519C31.7829 54.575 31.8149 54.647 31.8149 54.735V62.535C31.8149 62.623 31.7829 62.695 31.7189 62.751C31.6629 62.807 31.5949 62.835 31.5149 62.835H29.9669C29.8789 62.835 29.8029 62.807 29.7389 62.751C29.6829 62.695 29.6549 62.623 29.6549 62.535V57.879L26.2469 62.607C26.2069 62.663 26.1549 62.715 26.0909 62.763C26.0349 62.811 25.9509 62.835 25.8389 62.835H24.4469ZM33.7867 62.835C33.6987 62.835 33.6267 62.807 33.5707 62.751C33.5147 62.695 33.4867 62.623 33.4867 62.535V54.735C33.4867 54.647 33.5147 54.575 33.5707 54.519C33.6267 54.463 33.6987 54.435 33.7867 54.435H35.3347C35.4227 54.435 35.4947 54.463 35.5507 54.519C35.6067 54.575 35.6347 54.647 35.6347 54.735V57.627H36.3667L38.1427 54.663C38.1827 54.599 38.2387 54.547 38.3107 54.507C38.3827 54.459 38.4747 54.435 38.5867 54.435H40.3147C40.3947 54.435 40.4587 54.463 40.5067 54.519C40.5547 54.567 40.5787 54.623 40.5787 54.687C40.5787 54.735 40.5627 54.783 40.5307 54.831L38.2987 58.479L40.7467 62.427C40.7707 62.459 40.7827 62.503 40.7827 62.559C40.7827 62.639 40.7547 62.707 40.6987 62.763C40.6507 62.811 40.5867 62.835 40.5067 62.835H38.7307C38.6027 62.835 38.5067 62.807 38.4427 62.751C38.3867 62.695 38.3427 62.647 38.3107 62.607L36.4507 59.547H35.6347V62.535C35.6347 62.623 35.6067 62.695 35.5507 62.751C35.4947 62.807 35.4227 62.835 35.3347 62.835H33.7867Z" fill="#DDDDFF"/>
</svg>
